<svg width="287" height="54" viewBox="0 0 287 54" fill="none" xmlns="http://www.w3.org/2000/svg">
<path d="M39.196 16.7415H35.7716V22.6391H29.4935V0.443904H39.6399C41.648 0.443904 43.3919 0.782116 44.8716 1.45854C46.3513 2.11383 47.4927 3.06505 48.296 4.31221C49.0992 5.53823 49.5009 6.9862 49.5009 8.65612C49.5009 10.2626 49.1204 11.6683 48.3594 12.8732C47.6196 14.057 46.5521 14.987 45.157 15.6635L49.9448 22.6391H43.2228L39.196 16.7415ZM43.1594 8.65612C43.1594 7.62035 42.8317 6.81709 42.1765 6.24636C41.5212 5.67563 40.5488 5.39026 39.2594 5.39026H35.7716V11.8903H39.2594C40.5488 11.8903 41.5212 11.6155 42.1765 11.0659C42.8317 10.4952 43.1594 9.6919 43.1594 8.65612Z" fill="#F1F0F3"/>
<path d="M65.6157 23.083C63.2905 23.083 61.1978 22.5968 59.3376 21.6245C57.4986 20.631 56.0506 19.257 54.9937 17.5025C53.9368 15.748 53.4083 13.761 53.4083 11.5415C53.4083 9.32198 53.9368 7.33498 54.9937 5.5805C56.0506 3.82603 57.4986 2.46261 59.3376 1.49025C61.1978 0.496749 63.2905 0 65.6157 0C67.6449 0 69.4734 0.359351 71.101 1.07805C72.7287 1.79675 74.0815 2.83253 75.1596 4.18538L71.1645 7.80002C69.7271 6.06669 67.9831 5.20002 65.9327 5.20002C64.7279 5.20002 63.6498 5.46424 62.6986 5.9927C61.7685 6.52116 61.0392 7.27157 60.5108 8.24393C60.0035 9.19515 59.7498 10.2943 59.7498 11.5415C59.7498 12.7887 60.0035 13.8984 60.5108 14.8708C61.0392 15.822 61.7685 16.5618 62.6986 17.0903C63.6498 17.6188 64.7279 17.883 65.9327 17.883C67.9831 17.883 69.7271 17.0163 71.1645 15.283L75.1596 18.8976C74.0815 20.2505 72.7287 21.2862 71.101 22.0049C69.4734 22.7236 67.6449 23.083 65.6157 23.083Z" fill="#F1F0F3"/>
<path d="M6.71237 22.5365H0.306641L10.103 0.34482H16.2861L26.1154 22.5385H19.5819L13.1452 6.49897L6.71237 22.5365Z" fill="#F1F0F3"/>
<path d="M82.9501 22.5365H76.5444L86.3407 0.34482H92.5239L102.353 22.5385H95.8197L89.383 6.49897L82.9501 22.5365Z" fill="#F1F0F3"/>
<path d="M105.689 0.445839H116.184C118.615 0.445839 120.771 0.900312 122.653 1.80926C124.534 2.7182 125.992 4.00764 127.028 5.67756C128.064 7.34749 128.582 9.30278 128.582 11.5434C128.582 13.7841 128.064 15.7394 127.028 17.4093C125.992 19.0792 124.534 20.3687 122.653 21.2776C120.771 22.1866 118.615 22.641 116.184 22.641H105.689V0.445839ZM115.931 17.6313C117.833 17.6313 119.355 17.0922 120.497 16.0142C121.659 14.9361 122.24 13.4459 122.24 11.5434C122.24 9.64099 121.659 8.15074 120.497 7.07269C119.355 5.99464 117.833 5.45561 115.931 5.45561H111.967V17.6313H115.931Z" fill="#F1F0F3"/>
<path d="M133.47 0.445839H139.748V22.641H133.47V0.445839Z" fill="#F1F0F3"/>
<path d="M149.433 22.5365H143.027L152.824 0.34482H159.007L168.836 22.5385H162.303L155.866 6.49897L149.433 22.5365Z" fill="#F1F0F3"/>
<path d="M217.924 0.443904L210.727 22.6391H204.005L199.756 9.13173L195.317 22.6391H188.595L181.397 0.443904H187.866L192.336 14.6171L197.029 0.443904H202.8L207.271 14.7439L211.932 0.443904H217.924Z" fill="#F1F0F3"/>
<path d="M239.579 17.7879V22.6391H221.759V0.443904H239.166V5.29514H227.974V9.03661H237.835V13.7293H227.974V17.7879H239.579Z" fill="#F1F0F3"/>
<path d="M261.706 11.0659C262.975 11.5098 263.968 12.2074 264.687 13.1586C265.406 14.0887 265.765 15.2196 265.765 16.5513C265.765 18.496 264.983 19.9968 263.419 21.0537C261.854 22.1106 259.593 22.6391 256.633 22.6391H244.648V0.443904H255.999C258.832 0.443904 260.988 0.972361 262.467 2.02927C263.947 3.06505 264.687 4.47075 264.687 6.24636C264.687 7.30327 264.423 8.2545 263.894 9.10003C263.387 9.92442 262.658 10.5797 261.706 11.0659ZM250.863 4.97806V9.25856H255.175C257.289 9.25856 258.345 8.53986 258.345 7.10246C258.345 5.6862 257.289 4.97806 255.175 4.97806H250.863ZM256.126 18.1049C258.324 18.1049 259.424 17.3545 259.424 15.8537C259.424 14.3529 258.324 13.6025 256.126 13.6025H250.863V18.1049H256.126Z" fill="#F1F0F3"/>
<path d="M280.844 9.32198C282.683 9.70247 284.088 10.4634 285.061 11.6049C286.054 12.7252 286.551 14.0887 286.551 15.6952C286.551 17.0057 286.192 18.2212 285.473 19.3415C284.775 20.4618 283.697 21.3708 282.239 22.0684C280.801 22.7448 279.015 23.083 276.88 23.083C275.316 23.083 273.762 22.8927 272.219 22.5123C270.697 22.1318 269.376 21.5927 268.256 20.8952L270.539 16.1708C271.405 16.7627 272.378 17.2171 273.456 17.5342C274.555 17.8513 275.633 18.0098 276.69 18.0098C277.768 18.0098 278.624 17.809 279.258 17.4074C279.892 17.0057 280.209 16.435 280.209 15.6952C280.209 14.2578 279.079 13.5391 276.817 13.5391H274.185V9.57564L278.148 5.29514H269.397V0.443904H285.441V4.37562L280.844 9.32198Z" fill="#F1F0F3"/>
<path d="M50.7751 33.5583H46.3179V32.3987H56.573V33.5583H52.1159V45.0816H50.7751V33.5583ZM71.8509 43.922V45.0816H62.8822V32.3987H71.5791V33.5583H64.223V38.0698H70.7819V39.2112H64.223V43.922H71.8509ZM84.607 45.1903C83.3508 45.1903 82.2154 44.9125 81.2007 44.3569C80.1982 43.8013 79.407 43.0342 78.8272 42.0558C78.2595 41.0654 77.9756 39.9601 77.9756 38.7402C77.9756 37.5202 78.2595 36.421 78.8272 35.4426C79.407 34.4521 80.2042 33.679 81.2189 33.1234C82.2335 32.5678 83.3689 32.29 84.6251 32.29C85.5673 32.29 86.437 32.447 87.2342 32.761C88.0314 33.0751 88.7078 33.5341 89.2635 34.1381L88.4119 34.9896C87.4214 33.9871 86.1712 33.4858 84.6614 33.4858C83.6588 33.4858 82.7468 33.7153 81.9255 34.1743C81.1041 34.6333 80.4579 35.2614 79.9868 36.0586C79.5278 36.8558 79.2983 37.7497 79.2983 38.7402C79.2983 39.7306 79.5278 40.6245 79.9868 41.4217C80.4579 42.2189 81.1041 42.847 81.9255 43.306C82.7468 43.765 83.6588 43.9945 84.6614 43.9945C86.1833 43.9945 87.4335 43.4872 88.4119 42.4726L89.2635 43.3241C88.7078 43.9281 88.0254 44.3931 87.2161 44.7193C86.4189 45.0333 85.5492 45.1903 84.607 45.1903ZM106.888 32.3987V45.0816H105.566V39.2293H97.6297V45.0816H96.2889V32.3987H97.6297V38.0516H105.566V32.3987H106.888ZM125.794 32.3987V45.0816H124.689L116.536 34.7903V45.0816H115.195V32.3987H116.3L124.472 42.69V32.3987H125.794ZM139.646 45.1903C138.389 45.1903 137.248 44.9125 136.221 44.3569C135.207 43.7892 134.409 43.0161 133.83 42.0377C133.262 41.0593 132.978 39.9601 132.978 38.7402C132.978 37.5202 133.262 36.421 133.83 35.4426C134.409 34.4642 135.207 33.6972 136.221 33.1415C137.248 32.5738 138.389 32.29 139.646 32.29C140.902 32.29 142.031 32.5678 143.034 33.1234C144.048 33.679 144.846 34.4521 145.425 35.4426C146.005 36.421 146.295 37.5202 146.295 38.7402C146.295 39.9601 146.005 41.0654 145.425 42.0558C144.846 43.0342 144.048 43.8013 143.034 44.3569C142.031 44.9125 140.902 45.1903 139.646 45.1903ZM139.646 43.9945C140.648 43.9945 141.554 43.7711 142.363 43.3241C143.173 42.8651 143.807 42.237 144.266 41.4398C144.725 40.6305 144.954 39.7306 144.954 38.7402C144.954 37.7497 144.725 36.8558 144.266 36.0586C143.807 35.2493 143.173 34.6212 142.363 34.1743C141.554 33.7153 140.648 33.4858 139.646 33.4858C138.643 33.4858 137.731 33.7153 136.91 34.1743C136.1 34.6212 135.46 35.2493 134.989 36.0586C134.53 36.8558 134.301 37.7497 134.301 38.7402C134.301 39.7306 134.53 40.6305 134.989 41.4398C135.46 42.237 136.1 42.8651 136.91 43.3241C137.731 43.7711 138.643 43.9945 139.646 43.9945ZM153.468 32.3987H154.808V43.922H161.911V45.0816H153.468V32.3987ZM173.601 45.1903C172.345 45.1903 171.203 44.9125 170.176 44.3569C169.162 43.7892 168.365 43.0161 167.785 42.0377C167.217 41.0593 166.933 39.9601 166.933 38.7402C166.933 37.5202 167.217 36.421 167.785 35.4426C168.365 34.4642 169.162 33.6972 170.176 33.1415C171.203 32.5738 172.345 32.29 173.601 32.29C174.857 32.29 175.986 32.5678 176.989 33.1234C178.004 33.679 178.801 34.4521 179.381 35.4426C179.96 36.421 180.25 37.5202 180.25 38.7402C180.25 39.9601 179.96 41.0654 179.381 42.0558C178.801 43.0342 178.004 43.8013 176.989 44.3569C175.986 44.9125 174.857 45.1903 173.601 45.1903ZM173.601 43.9945C174.603 43.9945 175.509 43.7711 176.319 43.3241C177.128 42.8651 177.762 42.237 178.221 41.4398C178.68 40.6305 178.91 39.7306 178.91 38.7402C178.91 37.7497 178.68 36.8558 178.221 36.0586C177.762 35.2493 177.128 34.6212 176.319 34.1743C175.509 33.7153 174.603 33.4858 173.601 33.4858C172.598 33.4858 171.686 33.7153 170.865 34.1743C170.056 34.6212 169.415 35.2493 168.944 36.0586C168.485 36.8558 168.256 37.7497 168.256 38.7402C168.256 39.7306 168.485 40.6305 168.944 41.4398C169.415 42.237 170.056 42.8651 170.865 43.3241C171.686 43.7711 172.598 43.9945 173.601 43.9945ZM196.355 38.7402H197.642V43.5778C197.05 44.0972 196.349 44.4958 195.54 44.7736C194.731 45.0514 193.879 45.1903 192.985 45.1903C191.717 45.1903 190.575 44.9125 189.561 44.3569C188.546 43.8013 187.749 43.0342 187.169 42.0558C186.589 41.0654 186.3 39.9601 186.3 38.7402C186.3 37.5202 186.589 36.421 187.169 35.4426C187.749 34.4521 188.546 33.679 189.561 33.1234C190.575 32.5678 191.723 32.29 193.003 32.29C193.97 32.29 194.857 32.447 195.667 32.761C196.476 33.063 197.159 33.516 197.714 34.1199L196.881 34.9715C195.878 33.981 194.604 33.4858 193.058 33.4858C192.031 33.4858 191.101 33.7153 190.267 34.1743C189.446 34.6212 188.8 35.2493 188.329 36.0586C187.858 36.8558 187.622 37.7497 187.622 38.7402C187.622 39.7306 187.858 40.6245 188.329 41.4217C188.8 42.2189 189.446 42.847 190.267 43.306C191.089 43.765 192.013 43.9945 193.04 43.9945C194.344 43.9945 195.449 43.6684 196.355 43.0161V38.7402ZM205.604 32.3987H206.944V45.0816H205.604V32.3987ZM224.207 43.922V45.0816H215.238V32.3987H223.935V33.5583H216.579V38.0698H223.138V39.2112H216.579V43.922H224.207ZM235.023 45.1903C234.081 45.1903 233.175 45.0394 232.305 44.7374C231.447 44.4354 230.783 44.0368 230.312 43.5416L230.837 42.5088C231.296 42.9678 231.906 43.3423 232.667 43.6321C233.428 43.91 234.213 44.0489 235.023 44.0489C236.158 44.0489 237.01 43.8435 237.577 43.4328C238.145 43.0101 238.429 42.4665 238.429 41.8022C238.429 41.2949 238.272 40.8902 237.958 40.5882C237.656 40.2863 237.281 40.0568 236.835 39.8997C236.388 39.7306 235.766 39.5494 234.968 39.3562C234.014 39.1146 233.253 38.8851 232.685 38.6677C232.118 38.4382 231.629 38.0939 231.218 37.6349C230.819 37.1759 230.62 36.5539 230.62 35.7687C230.62 35.1285 230.789 34.5487 231.127 34.0293C231.465 33.4979 231.985 33.0751 232.685 32.761C233.386 32.447 234.256 32.29 235.295 32.29C236.019 32.29 236.726 32.3926 237.414 32.598C238.115 32.7912 238.719 33.063 239.226 33.4133L238.773 34.4823C238.242 34.132 237.674 33.8723 237.07 33.7032C236.466 33.522 235.874 33.4314 235.295 33.4314C234.183 33.4314 233.344 33.6489 232.776 34.0837C232.22 34.5065 231.943 35.0561 231.943 35.7325C231.943 36.2398 232.094 36.6505 232.396 36.9645C232.71 37.2665 233.096 37.5021 233.555 37.6712C234.026 37.8282 234.654 38.0033 235.439 38.1966C236.37 38.4261 237.118 38.6556 237.686 38.8851C238.266 39.1025 238.755 39.4407 239.154 39.8997C239.552 40.3467 239.752 40.9566 239.752 41.7297C239.752 42.3699 239.577 42.9557 239.226 43.4872C238.888 44.0066 238.363 44.4233 237.65 44.7374C236.937 45.0394 236.062 45.1903 235.023 45.1903Z" fill="#F1F0F3"/>
</svg>
