<svg width="287" height="54" viewBox="0 0 287 54" fill="none" xmlns="http://www.w3.org/2000/svg">
<path d="M39.196 16.7415H35.7716V22.6391H29.4935V0.443904H39.6399C41.648 0.443904 43.3919 0.782116 44.8716 1.45854C46.3513 2.11383 47.4927 3.06505 48.296 4.31221C49.0992 5.53823 49.5009 6.9862 49.5009 8.65612C49.5009 10.2626 49.1204 11.6683 48.3594 12.8732C47.6196 14.057 46.5521 14.987 45.157 15.6635L49.9448 22.6391H43.2228L39.196 16.7415ZM43.1594 8.65612C43.1594 7.62035 42.8317 6.81709 42.1765 6.24636C41.5212 5.67563 40.5488 5.39026 39.2594 5.39026H35.7716V11.8903H39.2594C40.5488 11.8903 41.5212 11.6155 42.1765 11.0659C42.8317 10.4952 43.1594 9.6919 43.1594 8.65612Z" fill="#F7ECFD"/>
<path d="M65.6157 23.083C63.2905 23.083 61.1978 22.5968 59.3376 21.6245C57.4986 20.631 56.0506 19.257 54.9937 17.5025C53.9368 15.748 53.4083 13.761 53.4083 11.5415C53.4083 9.32198 53.9368 7.33498 54.9937 5.5805C56.0506 3.82603 57.4986 2.46261 59.3376 1.49025C61.1978 0.496749 63.2905 0 65.6157 0C67.6449 0 69.4734 0.359351 71.101 1.07805C72.7287 1.79675 74.0815 2.83253 75.1596 4.18538L71.1645 7.80002C69.7271 6.06669 67.9831 5.20002 65.9327 5.20002C64.7279 5.20002 63.6498 5.46424 62.6986 5.9927C61.7685 6.52116 61.0392 7.27157 60.5108 8.24393C60.0035 9.19515 59.7498 10.2943 59.7498 11.5415C59.7498 12.7887 60.0035 13.8984 60.5108 14.8708C61.0392 15.822 61.7685 16.5618 62.6986 17.0903C63.6498 17.6188 64.7279 17.883 65.9327 17.883C67.9831 17.883 69.7271 17.0163 71.1645 15.283L75.1596 18.8976C74.0815 20.2505 72.7287 21.2862 71.101 22.0049C69.4734 22.7236 67.6449 23.083 65.6157 23.083Z" fill="#F7ECFD"/>
<path d="M6.71237 22.5365H0.306641L10.103 0.34482H16.2861L26.1154 22.5385H19.5819L13.1452 6.49897L6.71237 22.5365Z" fill="#F7ECFD"/>
<path d="M82.9501 22.5365H76.5444L86.3407 0.34482H92.5239L102.353 22.5385H95.8197L89.383 6.49897L82.9501 22.5365Z" fill="#F7ECFD"/>
<path d="M105.689 0.445839H116.184C118.615 0.445839 120.771 0.900312 122.653 1.80926C124.534 2.7182 125.992 4.00764 127.028 5.67756C128.064 7.34749 128.582 9.30278 128.582 11.5434C128.582 13.7841 128.064 15.7394 127.028 17.4093C125.992 19.0792 124.534 20.3687 122.653 21.2776C120.771 22.1866 118.615 22.641 116.184 22.641H105.689V0.445839ZM115.931 17.6313C117.833 17.6313 119.355 17.0922 120.497 16.0142C121.659 14.9361 122.24 13.4459 122.24 11.5434C122.24 9.64099 121.659 8.15074 120.497 7.07269C119.355 5.99464 117.833 5.45561 115.931 5.45561H111.967V17.6313H115.931Z" fill="#F7ECFD"/>
<path d="M133.47 0.445839H139.748V22.641H133.47V0.445839Z" fill="#F7ECFD"/>
<path d="M149.433 22.5365H143.027L152.824 0.34482H159.007L168.836 22.5385H162.303L155.866 6.49897L149.433 22.5365Z" fill="#F7ECFD"/>
<path d="M217.924 0.443904L210.727 22.6391H204.005L199.756 9.13173L195.317 22.6391H188.595L181.397 0.443904H187.866L192.336 14.6171L197.029 0.443904H202.8L207.271 14.7439L211.932 0.443904H217.924Z" fill="#F7ECFD"/>
<path d="M239.579 17.7879V22.6391H221.759V0.443904H239.166V5.29514H227.974V9.03661H237.835V13.7293H227.974V17.7879H239.579Z" fill="#F7ECFD"/>
<path d="M261.706 11.0659C262.975 11.5098 263.968 12.2074 264.687 13.1586C265.406 14.0887 265.765 15.2196 265.765 16.5513C265.765 18.496 264.983 19.9968 263.419 21.0537C261.854 22.1106 259.593 22.6391 256.633 22.6391H244.648V0.443904H255.999C258.832 0.443904 260.988 0.972361 262.467 2.02927C263.947 3.06505 264.687 4.47075 264.687 6.24636C264.687 7.30327 264.423 8.2545 263.894 9.10003C263.387 9.92442 262.658 10.5797 261.706 11.0659ZM250.863 4.97806V9.25856H255.175C257.289 9.25856 258.345 8.53986 258.345 7.10246C258.345 5.6862 257.289 4.97806 255.175 4.97806H250.863ZM256.126 18.1049C258.324 18.1049 259.424 17.3545 259.424 15.8537C259.424 14.3529 258.324 13.6025 256.126 13.6025H250.863V18.1049H256.126Z" fill="#F7ECFD"/>
<path d="M280.844 9.32198C282.683 9.70247 284.088 10.4634 285.061 11.6049C286.054 12.7252 286.551 14.0887 286.551 15.6952C286.551 17.0057 286.192 18.2212 285.473 19.3415C284.775 20.4618 283.697 21.3708 282.239 22.0684C280.801 22.7448 279.015 23.083 276.88 23.083C275.316 23.083 273.762 22.8927 272.219 22.5123C270.697 22.1318 269.376 21.5927 268.256 20.8952L270.539 16.1708C271.405 16.7627 272.378 17.2171 273.456 17.5342C274.555 17.8513 275.633 18.0098 276.69 18.0098C277.768 18.0098 278.624 17.809 279.258 17.4074C279.892 17.0057 280.209 16.435 280.209 15.6952C280.209 14.2578 279.079 13.5391 276.817 13.5391H274.185V9.57564L278.148 5.29514H269.397V0.443904H285.441V4.37562L280.844 9.32198Z" fill="#F7ECFD"/>
<path d="M4.52963 33.5583H0.072474V32.3987H10.3275V33.5583H5.8704V45.0817H4.52963V33.5583ZM25.6054 43.9221V45.0817H16.6367V32.3987H25.3336V33.5583H17.9775V38.0698H24.5364V39.2113H17.9775V43.9221H25.6054ZM38.3615 45.1904C37.1053 45.1904 35.9699 44.9126 34.9553 44.3569C33.9527 43.8013 33.1615 43.0343 32.5817 42.0559C32.014 41.0654 31.7302 39.9602 31.7302 38.7402C31.7302 37.5202 32.014 36.421 32.5817 35.4426C33.1615 34.4521 33.9587 33.6791 34.9734 33.1235C35.988 32.5678 37.1234 32.29 38.3797 32.29C39.3218 32.29 40.1915 32.447 40.9887 32.7611C41.7859 33.0751 42.4624 33.5341 43.018 34.1381L42.1664 34.9897C41.176 33.9871 39.9258 33.4858 38.4159 33.4858C37.4133 33.4858 36.5014 33.7153 35.68 34.1743C34.8586 34.6333 34.2124 35.2614 33.7413 36.0586C33.2823 36.8559 33.0528 37.7497 33.0528 38.7402C33.0528 39.7307 33.2823 40.6245 33.7413 41.4217C34.2124 42.2189 34.8586 42.847 35.68 43.3061C36.5014 43.7651 37.4133 43.9946 38.4159 43.9946C39.9379 43.9946 41.188 43.4872 42.1664 42.4726L43.018 43.3242C42.4624 43.9281 41.7799 44.3932 40.9706 44.7193C40.1734 45.0333 39.3037 45.1904 38.3615 45.1904ZM60.6428 32.3987V45.0817H59.3201V39.2294H51.3842V45.0817H50.0434V32.3987H51.3842V38.0517H59.3201V32.3987H60.6428ZM79.549 32.3987V45.0817H78.4438L70.2904 34.7904V45.0817H68.9497V32.3987H70.0549L78.2264 42.69V32.3987H79.549ZM93.4002 45.1904C92.144 45.1904 91.0025 44.9126 89.9758 44.3569C88.9611 43.7892 88.1639 43.0162 87.5841 42.0378C87.0164 41.0594 86.7326 39.9602 86.7326 38.7402C86.7326 37.5202 87.0164 36.421 87.5841 35.4426C88.1639 34.4642 88.9611 33.6972 89.9758 33.1416C91.0025 32.5739 92.144 32.29 93.4002 32.29C94.6564 32.29 95.7858 32.5678 96.7883 33.1235C97.803 33.6791 98.6002 34.4521 99.18 35.4426C99.7598 36.421 100.05 37.5202 100.05 38.7402C100.05 39.9602 99.7598 41.0654 99.18 42.0559C98.6002 43.0343 97.803 43.8013 96.7883 44.3569C95.7858 44.9126 94.6564 45.1904 93.4002 45.1904ZM93.4002 43.9946C94.4027 43.9946 95.3087 43.7711 96.118 43.3242C96.9272 42.8652 97.5614 42.2371 98.0204 41.4398C98.4794 40.6306 98.7089 39.7307 98.7089 38.7402C98.7089 37.7497 98.4794 36.8559 98.0204 36.0586C97.5614 35.2494 96.9272 34.6212 96.118 34.1743C95.3087 33.7153 94.4027 33.4858 93.4002 33.4858C92.3976 33.4858 91.4857 33.7153 90.6643 34.1743C89.855 34.6212 89.2148 35.2494 88.7437 36.0586C88.2847 36.8559 88.0552 37.7497 88.0552 38.7402C88.0552 39.7307 88.2847 40.6306 88.7437 41.4398C89.2148 42.2371 89.855 42.8652 90.6643 43.3242C91.4857 43.7711 92.3976 43.9946 93.4002 43.9946ZM107.222 32.3987H108.563V43.9221H115.665V45.0817H107.222V32.3987ZM127.355 45.1904C126.099 45.1904 124.958 44.9126 123.931 44.3569C122.916 43.7892 122.119 43.0162 121.539 42.0378C120.972 41.0594 120.688 39.9602 120.688 38.7402C120.688 37.5202 120.972 36.421 121.539 35.4426C122.119 34.4642 122.916 33.6972 123.931 33.1416C124.958 32.5739 126.099 32.29 127.355 32.29C128.612 32.29 129.741 32.5678 130.744 33.1235C131.758 33.6791 132.555 34.4521 133.135 35.4426C133.715 36.421 134.005 37.5202 134.005 38.7402C134.005 39.9602 133.715 41.0654 133.135 42.0559C132.555 43.0343 131.758 43.8013 130.744 44.3569C129.741 44.9126 128.612 45.1904 127.355 45.1904ZM127.355 43.9946C128.358 43.9946 129.264 43.7711 130.073 43.3242C130.882 42.8652 131.517 42.2371 131.976 41.4398C132.435 40.6306 132.664 39.7307 132.664 38.7402C132.664 37.7497 132.435 36.8559 131.976 36.0586C131.517 35.2494 130.882 34.6212 130.073 34.1743C129.264 33.7153 128.358 33.4858 127.355 33.4858C126.353 33.4858 125.441 33.7153 124.619 34.1743C123.81 34.6212 123.17 35.2494 122.699 36.0586C122.24 36.8559 122.01 37.7497 122.01 38.7402C122.01 39.7307 122.24 40.6306 122.699 41.4398C123.17 42.2371 123.81 42.8652 124.619 43.3242C125.441 43.7711 126.353 43.9946 127.355 43.9946ZM150.11 38.7402H151.396V43.5778C150.804 44.0972 150.104 44.4958 149.294 44.7737C148.485 45.0515 147.634 45.1904 146.74 45.1904C145.471 45.1904 144.33 44.9126 143.315 44.3569C142.301 43.8013 141.504 43.0343 140.924 42.0559C140.344 41.0654 140.054 39.9602 140.054 38.7402C140.054 37.5202 140.344 36.421 140.924 35.4426C141.504 34.4521 142.301 33.6791 143.315 33.1235C144.33 32.5678 145.478 32.29 146.758 32.29C147.724 32.29 148.612 32.447 149.421 32.7611C150.231 33.0631 150.913 33.516 151.469 34.12L150.635 34.9715C149.633 33.9811 148.358 33.4858 146.812 33.4858C145.786 33.4858 144.855 33.7153 144.022 34.1743C143.201 34.6212 142.554 35.2494 142.083 36.0586C141.612 36.8559 141.377 37.7497 141.377 38.7402C141.377 39.7307 141.612 40.6245 142.083 41.4217C142.554 42.2189 143.201 42.847 144.022 43.3061C144.843 43.7651 145.767 43.9946 146.794 43.9946C148.099 43.9946 149.204 43.6684 150.11 43.0162V38.7402ZM159.358 32.3987H160.699V45.0817H159.358V32.3987ZM177.962 43.9221V45.0817H168.993V32.3987H177.69V33.5583H170.334V38.0698H176.893V39.2113H170.334V43.9221H177.962ZM188.777 45.1904C187.835 45.1904 186.929 45.0394 186.059 44.7374C185.202 44.4354 184.538 44.0368 184.066 43.5416L184.592 42.5088C185.051 42.9678 185.661 43.3423 186.422 43.6322C187.183 43.91 187.968 44.0489 188.777 44.0489C189.913 44.0489 190.764 43.8436 191.332 43.4329C191.9 43.0101 192.184 42.4666 192.184 41.8022C192.184 41.2949 192.027 40.8903 191.712 40.5883C191.41 40.2863 191.036 40.0568 190.589 39.8998C190.142 39.7307 189.52 39.5495 188.723 39.3562C187.769 39.1146 187.008 38.8851 186.44 38.6677C185.872 38.4382 185.383 38.094 184.972 37.635C184.574 37.176 184.374 36.5539 184.374 35.7688C184.374 35.1286 184.544 34.5488 184.882 34.0294C185.22 33.4979 185.739 33.0751 186.44 32.7611C187.141 32.447 188.01 32.29 189.049 32.29C189.774 32.29 190.48 32.3927 191.169 32.598C191.869 32.7913 192.473 33.0631 192.981 33.4133L192.528 34.4823C191.996 34.132 191.429 33.8724 190.825 33.7032C190.221 33.5221 189.629 33.4315 189.049 33.4315C187.938 33.4315 187.098 33.6489 186.531 34.0837C185.975 34.5065 185.697 35.0561 185.697 35.7325C185.697 36.2398 185.848 36.6505 186.15 36.9646C186.464 37.2666 186.851 37.5021 187.31 37.6712C187.781 37.8282 188.409 38.0034 189.194 38.1966C190.124 38.4261 190.873 38.6556 191.441 38.8851C192.02 39.1026 192.51 39.4408 192.908 39.8998C193.307 40.3467 193.506 40.9567 193.506 41.7297C193.506 42.3699 193.331 42.9558 192.981 43.4872C192.643 44.0066 192.117 44.4234 191.404 44.7374C190.692 45.0394 189.816 45.1904 188.777 45.1904Z" fill="#F7ECFD"/>
</svg>
